<svg width="512" height="512" viewBox="0 0 512 512" fill="none" xmlns="http://www.w3.org/2000/svg">
  <rect width="512" height="512" rx="120" fill="url(#bg)" />
  <rect x="36" y="36" width="440" height="440" rx="104" stroke="rgba(255,255,255,0.18)" stroke-width="2" />
  <circle cx="256" cy="256" r="152" stroke="#D7E6DF" stroke-width="18" />
  <circle cx="256" cy="256" r="102" stroke="#D7E6DF" stroke-width="14" />
  <circle cx="256" cy="256" r="52" stroke="#D7E6DF" stroke-width="10" />
  <path d="M256 256L378 126C408 159 426 206 426 256H256Z" fill="url(#sweep)" />
  <path d="M256 256L350 144" stroke="#F7FAF8" stroke-width="14" stroke-linecap="round" />
  <circle cx="256" cy="256" r="18" fill="#F7FAF8" />
  <circle cx="344" cy="169" r="12" fill="#F2B279" />
  <circle cx="187" cy="181" r="10" fill="#7FC8A9" />
  <circle cx="318" cy="313" r="14" fill="#F7FAF8" />
  <path d="M124 372C162 338 208 320 256 320C310 320 360 342 400 382" stroke="#D7E6DF" stroke-width="16" stroke-linecap="round" />
  <defs>
    <linearGradient id="bg" x1="74" y1="58" x2="438" y2="468" gradientUnits="userSpaceOnUse">
      <stop stop-color="#162A33" />
      <stop offset="1" stop-color="#2F5B52" />
    </linearGradient>
    <linearGradient id="sweep" x1="256" y1="256" x2="426" y2="126" gradientUnits="userSpaceOnUse">
      <stop stop-color="#7FC8A9" stop-opacity="0.18" />
      <stop offset="1" stop-color="#7FC8A9" stop-opacity="0.82" />
    </linearGradient>
  </defs>
</svg>
